<mxfile host="app.diagrams.net" modified="2023-06-16T10:57:28.991Z" agent="Mozilla/5.0 (Windows NT 10.0; Win64; x64; rv:109.0) Gecko/20100101 Firefox/114.0" etag="3lhz0s1YL5QNy0Zjw4Zf" version="21.3.8" type="device">
  <diagram name="Seite-1" id="8mYqw1MtivQf75mWSTI-">
    <mxGraphModel dx="607" dy="782" grid="1" gridSize="10" guides="1" tooltips="1" connect="1" arrows="1" fold="1" page="1" pageScale="1" pageWidth="827" pageHeight="1169" math="0" shadow="0">
      <root>
        <mxCell id="0" />
        <mxCell id="1" parent="0" />
        <mxCell id="exvRzudLFX4IkYru3cxJ-9" value="" style="whiteSpace=wrap;html=1;aspect=fixed;container=0;strokeColor=#000000;" vertex="1" parent="1">
          <mxGeometry x="960" y="200" width="40" height="40" as="geometry" />
        </mxCell>
        <mxCell id="exvRzudLFX4IkYru3cxJ-10" value="" style="whiteSpace=wrap;html=1;aspect=fixed;container=0;strokeColor=#000000;" vertex="1" parent="1">
          <mxGeometry x="1000" y="200" width="40" height="40" as="geometry" />
        </mxCell>
        <mxCell id="exvRzudLFX4IkYru3cxJ-11" value="" style="whiteSpace=wrap;html=1;aspect=fixed;container=0;strokeColor=#000000;" vertex="1" parent="1">
          <mxGeometry x="1080" y="200" width="40" height="40" as="geometry" />
        </mxCell>
        <mxCell id="exvRzudLFX4IkYru3cxJ-13" value="" style="whiteSpace=wrap;html=1;aspect=fixed;container=0;strokeColor=#000000;" vertex="1" parent="1">
          <mxGeometry x="1040" y="200" width="40" height="40" as="geometry" />
        </mxCell>
        <mxCell id="exvRzudLFX4IkYru3cxJ-14" value="" style="whiteSpace=wrap;html=1;aspect=fixed;container=0;strokeColor=#000000;" vertex="1" parent="1">
          <mxGeometry x="1120" y="200" width="40" height="40" as="geometry" />
        </mxCell>
        <mxCell id="exvRzudLFX4IkYru3cxJ-17" value="1" style="whiteSpace=wrap;html=1;aspect=fixed;container=0;fillColor=#d5e8d4;strokeColor=#000000;" vertex="1" parent="1">
          <mxGeometry x="960" y="240" width="40" height="40" as="geometry" />
        </mxCell>
        <mxCell id="exvRzudLFX4IkYru3cxJ-18" value="1" style="whiteSpace=wrap;html=1;aspect=fixed;container=0;fillColor=#d5e8d4;strokeColor=#000000;" vertex="1" parent="1">
          <mxGeometry x="1000" y="240" width="40" height="40" as="geometry" />
        </mxCell>
        <mxCell id="exvRzudLFX4IkYru3cxJ-19" value="1" style="whiteSpace=wrap;html=1;aspect=fixed;container=0;fillColor=#d5e8d4;strokeColor=#000000;" vertex="1" parent="1">
          <mxGeometry x="1080" y="240" width="40" height="40" as="geometry" />
        </mxCell>
        <mxCell id="exvRzudLFX4IkYru3cxJ-20" value="1" style="whiteSpace=wrap;html=1;aspect=fixed;container=0;fillColor=#d5e8d4;strokeColor=#000000;" vertex="1" parent="1">
          <mxGeometry x="1040" y="240" width="40" height="40" as="geometry" />
        </mxCell>
        <mxCell id="exvRzudLFX4IkYru3cxJ-21" value="1" style="whiteSpace=wrap;html=1;aspect=fixed;container=0;fillColor=#d5e8d4;strokeColor=#000000;" vertex="1" parent="1">
          <mxGeometry x="1120" y="240" width="40" height="40" as="geometry" />
        </mxCell>
        <mxCell id="exvRzudLFX4IkYru3cxJ-23" value="1" style="whiteSpace=wrap;html=1;aspect=fixed;container=0;fillColor=#d5e8d4;strokeColor=#000000;" vertex="1" parent="1">
          <mxGeometry x="960" y="280" width="40" height="40" as="geometry" />
        </mxCell>
        <mxCell id="exvRzudLFX4IkYru3cxJ-24" value="1" style="whiteSpace=wrap;html=1;aspect=fixed;container=0;fillColor=#d5e8d4;strokeColor=#000000;" vertex="1" parent="1">
          <mxGeometry x="1000" y="280" width="40" height="40" as="geometry" />
        </mxCell>
        <mxCell id="exvRzudLFX4IkYru3cxJ-25" value="" style="whiteSpace=wrap;html=1;aspect=fixed;container=0;strokeColor=#000000;" vertex="1" parent="1">
          <mxGeometry x="1080" y="280" width="40" height="40" as="geometry" />
        </mxCell>
        <mxCell id="exvRzudLFX4IkYru3cxJ-26" value="" style="whiteSpace=wrap;html=1;aspect=fixed;container=0;strokeColor=#000000;" vertex="1" parent="1">
          <mxGeometry x="1040" y="280" width="40" height="40" as="geometry" />
        </mxCell>
        <mxCell id="exvRzudLFX4IkYru3cxJ-27" value="1" style="whiteSpace=wrap;html=1;aspect=fixed;container=0;fillColor=#d5e8d4;strokeColor=#000000;" vertex="1" parent="1">
          <mxGeometry x="1120" y="280" width="40" height="40" as="geometry" />
        </mxCell>
        <mxCell id="exvRzudLFX4IkYru3cxJ-29" value="1" style="whiteSpace=wrap;html=1;aspect=fixed;container=0;fillColor=#d5e8d4;strokeColor=#000000;" vertex="1" parent="1">
          <mxGeometry x="960" y="320" width="40" height="40" as="geometry" />
        </mxCell>
        <mxCell id="exvRzudLFX4IkYru3cxJ-31" value="" style="whiteSpace=wrap;html=1;aspect=fixed;container=0;strokeColor=#000000;" vertex="1" parent="1">
          <mxGeometry x="1080" y="320" width="40" height="40" as="geometry" />
        </mxCell>
        <mxCell id="exvRzudLFX4IkYru3cxJ-32" value="0" style="whiteSpace=wrap;html=1;aspect=fixed;container=0;fillColor=#f8cecc;strokeColor=#000000;" vertex="1" parent="1">
          <mxGeometry x="1040" y="320" width="40" height="40" as="geometry" />
        </mxCell>
        <mxCell id="exvRzudLFX4IkYru3cxJ-33" value="" style="whiteSpace=wrap;html=1;aspect=fixed;container=0;strokeColor=#000000;" vertex="1" parent="1">
          <mxGeometry x="1120" y="320" width="40" height="40" as="geometry" />
        </mxCell>
        <mxCell id="exvRzudLFX4IkYru3cxJ-35" value="0" style="whiteSpace=wrap;html=1;aspect=fixed;container=0;fillColor=#f8cecc;strokeColor=#000000;" vertex="1" parent="1">
          <mxGeometry x="960" y="360" width="40" height="40" as="geometry" />
        </mxCell>
        <mxCell id="exvRzudLFX4IkYru3cxJ-36" value="0" style="whiteSpace=wrap;html=1;aspect=fixed;container=0;fillColor=#f8cecc;strokeColor=#000000;" vertex="1" parent="1">
          <mxGeometry x="1000" y="360" width="40" height="40" as="geometry" />
        </mxCell>
        <mxCell id="exvRzudLFX4IkYru3cxJ-37" value="0" style="whiteSpace=wrap;html=1;aspect=fixed;container=0;fillColor=#f8cecc;strokeColor=#000000;" vertex="1" parent="1">
          <mxGeometry x="1080" y="360" width="40" height="40" as="geometry" />
        </mxCell>
        <mxCell id="exvRzudLFX4IkYru3cxJ-38" value="0" style="whiteSpace=wrap;html=1;aspect=fixed;container=0;fillColor=#f8cecc;strokeColor=#000000;" vertex="1" parent="1">
          <mxGeometry x="1040" y="360" width="40" height="40" as="geometry" />
        </mxCell>
        <mxCell id="exvRzudLFX4IkYru3cxJ-39" value="" style="whiteSpace=wrap;html=1;aspect=fixed;container=0;strokeColor=#000000;" vertex="1" parent="1">
          <mxGeometry x="1120" y="360" width="40" height="40" as="geometry" />
        </mxCell>
        <mxCell id="exvRzudLFX4IkYru3cxJ-40" value="1" style="whiteSpace=wrap;html=1;aspect=fixed;container=0;fillColor=#d5e8d4;strokeColor=#000000;" vertex="1" parent="1">
          <mxGeometry x="960" y="200" width="40" height="40" as="geometry" />
        </mxCell>
        <mxCell id="exvRzudLFX4IkYru3cxJ-41" value="1" style="whiteSpace=wrap;html=1;aspect=fixed;container=0;fillColor=#d5e8d4;strokeColor=#000000;" vertex="1" parent="1">
          <mxGeometry x="1000" y="200" width="40" height="40" as="geometry" />
        </mxCell>
        <mxCell id="exvRzudLFX4IkYru3cxJ-42" value="1" style="whiteSpace=wrap;html=1;aspect=fixed;container=0;fillColor=#d5e8d4;strokeColor=#000000;" vertex="1" parent="1">
          <mxGeometry x="1040" y="200" width="40" height="40" as="geometry" />
        </mxCell>
        <mxCell id="exvRzudLFX4IkYru3cxJ-43" value="1" style="whiteSpace=wrap;html=1;aspect=fixed;container=0;fillColor=#d5e8d4;strokeColor=#000000;" vertex="1" parent="1">
          <mxGeometry x="1080" y="200" width="40" height="40" as="geometry" />
        </mxCell>
        <mxCell id="exvRzudLFX4IkYru3cxJ-44" value="1" style="whiteSpace=wrap;html=1;aspect=fixed;container=0;fillColor=#d5e8d4;strokeColor=#000000;" vertex="1" parent="1">
          <mxGeometry x="1120" y="200" width="40" height="40" as="geometry" />
        </mxCell>
        <mxCell id="exvRzudLFX4IkYru3cxJ-45" value="1" style="whiteSpace=wrap;html=1;aspect=fixed;container=0;fillColor=#d5e8d4;strokeColor=#000000;" vertex="1" parent="1">
          <mxGeometry x="1040" y="280" width="40" height="40" as="geometry" />
        </mxCell>
        <mxCell id="exvRzudLFX4IkYru3cxJ-46" value="0" style="whiteSpace=wrap;html=1;aspect=fixed;container=0;fillColor=#f8cecc;strokeColor=#000000;" vertex="1" parent="1">
          <mxGeometry x="1120" y="360" width="40" height="40" as="geometry" />
        </mxCell>
        <mxCell id="exvRzudLFX4IkYru3cxJ-47" value="0" style="whiteSpace=wrap;html=1;aspect=fixed;container=0;fillColor=#f8cecc;strokeColor=#000000;" vertex="1" parent="1">
          <mxGeometry x="1120" y="320" width="40" height="40" as="geometry" />
        </mxCell>
        <mxCell id="exvRzudLFX4IkYru3cxJ-48" value="0" style="whiteSpace=wrap;html=1;aspect=fixed;container=0;fillColor=#f8cecc;strokeColor=#000000;" vertex="1" parent="1">
          <mxGeometry x="1080" y="320" width="40" height="40" as="geometry" />
        </mxCell>
        <mxCell id="exvRzudLFX4IkYru3cxJ-49" value="1" style="whiteSpace=wrap;html=1;aspect=fixed;container=0;fillColor=#d5e8d4;strokeColor=#000000;" vertex="1" parent="1">
          <mxGeometry x="1080" y="280" width="40" height="40" as="geometry" />
        </mxCell>
        <mxCell id="exvRzudLFX4IkYru3cxJ-30" value="&lt;b&gt;1&lt;/b&gt;" style="whiteSpace=wrap;html=1;aspect=fixed;container=0;fillColor=#d5e8d4;strokeColor=#000000;strokeWidth=3;" vertex="1" parent="1">
          <mxGeometry x="1000" y="320" width="40" height="40" as="geometry" />
        </mxCell>
      </root>
    </mxGraphModel>
  </diagram>
</mxfile>
